<svg width="41" height="35" viewBox="0 0 41 35" fill="none" xmlns="http://www.w3.org/2000/svg">
<path d="M8.25 1H38V22M4 32H28" stroke="black"/>
<path d="M1 6V28.5C1 30.433 2.567 32 4.5 32V32C6.433 32 8 30.433 8 28.5V6" stroke="black"/>
<path d="M0.5 6H8V0.5" stroke="black"/>
<rect x="12.85" y="5.5" width="20.85" height="8" stroke="black"/>
<line x1="12.35" y1="17.5" x2="34.2" y2="17.5" stroke="black"/>
<path d="M12 25H28" stroke="black"/>
<line x1="12.35" y1="21.5" x2="25.65" y2="21.5" stroke="black"/>
<path d="M27 21.5H32" stroke="black"/>
<path d="M40.5 29C40.5 32.0376 38.0376 34.5 35 34.5C31.9624 34.5 29.5 32.0376 29.5 29C29.5 25.9624 31.9624 23.5 35 23.5C38.0376 23.5 40.5 25.9624 40.5 29Z" stroke="black"/>
<path d="M35 25.5V29H38.5" stroke="black"/>
</svg>
