<svg width="304" height="312" viewBox="0 0 304 312" fill="none" xmlns="http://www.w3.org/2000/svg">
<circle cx="137.5" cy="136.5" r="99.5" fill="white"/>
<path d="M81.2518 80C84.331 74.6667 92.029 74.6667 95.1082 80L157.618 188.27C160.697 193.603 156.848 200.27 150.69 200.27H25.6703C19.5119 200.27 15.6629 193.603 18.7421 188.27L81.2518 80Z" fill="#6C25C7"/>
<path d="M246.046 76.3691C252.206 76.3675 256.056 83.0367 252.975 88.3708L190.407 196.679C187.327 202.01 179.63 202.009 176.551 196.677L114.038 88.4008C110.959 83.0683 114.807 76.4024 120.964 76.4008L246.046 76.3691Z" fill="#6E12E3"/>
<path d="M39.5 153C44 177.5 48.001 185.349 60.5 200.25H25.9124C19.7416 200.25 15.8942 193.559 18.9982 188.226L39.5 153Z" fill="white"/>
<path d="M250.29 74.2788C256.599 74.2788 260.426 81.2406 257.044 86.5667L235.5 120.5C231.927 101.573 227 90 214.5 74.2788L250.29 74.2788Z" fill="white"/>
</svg>